<?xml version="1.0" standalone="no"?>
<!DOCTYPE svg PUBLIC "-//W3C//DTD SVG 20010904//EN"
 "http://www.w3.org/TR/2001/REC-SVG-20010904/DTD/svg10.dtd">
<svg version="1.0" xmlns="http://www.w3.org/2000/svg"
 width="500.000000pt" height="500.000000pt" viewBox="0 0 500.000000 500.000000"
 preserveAspectRatio="xMidYMid meet">

<g transform="translate(0.000000,500.000000) scale(0.100000,-0.100000)"
fill="#000000" stroke="none">
<path d="M1995 4971 c-34 -15 -59 -50 -80 -114 -16 -51 -26 -65 -52 -78 -54
-27 -63 -39 -63 -81 0 -31 7 -46 30 -70 30 -29 30 -32 21 -82 -5 -28 -16 -66
-24 -84 l-13 -33 -47 42 c-51 44 -55 54 -32 79 67 74 -30 178 -140 149 -88
-24 -134 -100 -165 -279 -25 -142 -32 -165 -44 -149 -47 64 -136 38 -136 -40
0 -20 -6 -46 -14 -57 -14 -18 -15 -17 -29 16 -9 19 -23 64 -32 100 -29 112
-52 140 -115 140 -36 0 -87 -45 -92 -83 -2 -16 -14 -25 -49 -34 -99 -28 -177
-135 -186 -255 -16 -207 149 -468 296 -468 80 0 154 76 167 173 6 43 8 45 27
35 12 -6 43 -8 74 -5 52 5 53 5 41 -16 -25 -48 -102 -146 -177 -226 -141 -149
-163 -217 -159 -493 l3 -173 -40 -115 c-38 -109 -40 -121 -40 -230 0 -101 4
-124 29 -194 39 -108 40 -182 3 -301 -52 -165 -27 -252 133 -466 108 -145 140
-205 169 -323 12 -48 31 -107 42 -130 44 -87 126 -148 234 -175 28 -7 55 -15
62 -16 7 -3 0 -17 -18 -36 -25 -27 -101 -171 -130 -247 -8 -20 -11 -21 -29
-10 -16 10 -24 10 -38 0 -57 -41 -61 -27 -13 48 45 69 46 72 30 101 -8 16 -19
20 -52 18 -25 -1 -56 5 -76 15 -26 14 -48 17 -87 13 l-51 -5 9 39 c32 123
-155 249 -350 237 -82 -5 -128 -22 -175 -67 -37 -34 -67 -92 -67 -131 0 -26
-4 -30 -27 -30 -39 0 -89 -33 -108 -71 -9 -17 -17 -52 -17 -77 0 -109 117
-171 238 -125 l51 20 10 -28 c16 -42 68 -69 131 -69 56 0 83 10 118 42 l22 19
7 -38 c13 -74 81 -111 143 -79 38 20 52 20 52 2 0 -22 40 -46 78 -46 43 0 82
21 121 65 l31 36 0 -50 c0 -42 4 -53 26 -70 48 -38 105 -19 129 44 7 18 8 18
16 -8 16 -57 57 -82 117 -71 72 14 196 169 172 214 -13 24 -52 26 -70 5 -14
-17 -110 -21 -110 -5 0 6 17 10 38 10 53 0 87 36 87 92 0 30 -6 45 -24 59 -28
23 -81 25 -122 4 l-30 -16 38 73 c21 40 39 75 40 77 1 1 21 -11 45 -28 98 -71
119 -83 181 -105 l66 -23 -29 -22 c-36 -26 -66 -83 -81 -150 -13 -62 1 -119
40 -163 24 -27 36 -32 88 -36 72 -5 115 12 172 70 50 50 93 122 85 143 -8 19
-41 38 -53 30 -8 -4 -22 93 -15 103 5 8 175 -48 193 -64 2 -1 -7 -24 -19 -49
-19 -40 -22 -58 -18 -128 5 -92 26 -142 80 -194 46 -45 97 -63 170 -63 108 1
192 45 243 126 17 27 31 41 33 33 17 -54 86 -80 145 -56 60 26 81 92 56 180
-13 47 -4 109 21 139 18 23 18 21 13 -77 -6 -112 3 -145 54 -185 22 -18 37
-21 75 -17 85 8 147 74 191 206 l23 69 12 -44 c14 -51 64 -112 109 -130 76
-32 178 -5 242 65 l36 39 -3 -76 c-5 -98 10 -147 48 -167 36 -19 63 -19 99 -1
39 21 53 59 59 158 l4 87 47 -5 c65 -8 124 25 176 99 22 31 59 70 82 86 50 36
82 93 90 161 5 44 3 49 -21 65 -24 16 -39 16 -76 1 -12 -5 -19 4 -28 38 -31
117 -161 167 -259 99 -20 -14 -39 -19 -70 -15 -37 3 -47 0 -72 -25 -23 -23
-31 -42 -36 -87 l-7 -58 -30 36 c-16 20 -43 43 -58 51 -37 19 -110 19 -154 1
-84 -35 -166 -150 -182 -253 -5 -37 -8 -41 -24 -33 -38 20 -70 12 -91 -25 -12
-19 -25 -35 -30 -35 -5 0 -8 35 -7 77 1 56 -3 87 -15 109 l-16 31 57 17 c165
52 242 121 331 296 35 69 92 167 128 218 136 195 157 276 141 527 -10 150 -10
151 21 276 25 102 31 147 31 236 0 128 -18 200 -83 328 -79 157 -88 220 -68
440 14 160 -23 272 -110 328 -24 16 -66 43 -94 60 -27 18 -61 50 -76 72 -22
33 -109 223 -109 239 0 2 17 10 38 16 20 7 56 22 79 35 l41 23 -25 -47 c-49
-91 -12 -187 91 -240 37 -19 62 -24 119 -24 40 0 89 5 110 11 34 10 38 9 32
-6 -14 -38 -17 -105 -5 -147 25 -90 133 -178 235 -192 25 -3 53 -11 62 -18 16
-12 16 -15 2 -32 -80 -90 -59 -244 45 -348 77 -77 170 -114 323 -130 64 -6 73
-5 92 14 32 32 37 68 14 99 -11 15 -30 28 -42 30 -11 2 -21 6 -21 10 0 4 20
29 44 56 l43 50 28 -22 c57 -45 135 -16 154 56 12 44 1 104 -26 141 -28 39
-116 78 -223 101 -52 11 -111 27 -130 36 l-35 16 30 21 c80 57 119 120 119
192 0 190 -236 311 -475 242 -40 -12 -43 -11 -70 16 -24 24 -33 27 -68 21 -87
-14 -122 56 -52 103 19 13 38 23 42 23 5 0 25 -15 45 -32 27 -24 46 -33 73
-33 45 0 94 33 111 75 11 28 11 34 -8 59 l-20 28 34 16 c21 10 41 31 51 52 16
34 16 38 -1 69 -32 60 -87 70 -181 34 l-56 -21 -44 22 c-27 13 -53 20 -65 16
-30 -10 -60 -54 -60 -91 0 -31 -5 -36 -72 -73 l-73 -41 -6 37 c-11 61 -39 71
-131 48 -47 -12 -33 16 46 92 41 39 80 87 86 105 12 32 14 33 71 33 52 0 61 3
93 34 46 44 61 90 47 134 -21 63 -102 117 -173 117 -75 0 -144 -79 -136 -155
5 -43 5 -43 -31 -49 -20 -3 -60 -22 -90 -42 -77 -52 -214 -187 -252 -247 -18
-29 -34 -54 -35 -55 -1 -2 -10 0 -18 5 -13 7 -3 22 54 78 62 61 70 74 70 107
0 28 -6 42 -26 57 -33 26 -50 26 -92 1 -39 -24 -72 -26 -72 -4 0 27 85 144
196 268 58 66 110 131 115 145 15 38 1 80 -34 102 -67 40 -130 16 -228 -88
-47 -51 -201 -244 -255 -321 -1 -2 -16 11 -33 29 -24 24 -38 30 -60 27 -28 -4
-28 -4 -19 31 14 49 2 118 -26 162 -37 55 -85 74 -186 74 -75 0 -91 -3 -138
-29 -69 -38 -137 -112 -169 -184 -14 -31 -27 -59 -29 -61 -1 -1 -13 4 -26 13
-45 32 -65 23 -132 -55 -9 -11 -29 -19 -46 -19 -38 0 -55 33 -46 84 6 31 11
36 44 42 63 11 90 31 103 74 16 53 0 112 -36 128 -14 6 -30 9 -37 7 -10 -4
-13 10 -13 50 0 41 -5 59 -20 74 -23 24 -71 34 -100 22z m65 -56 c8 -10 10
-34 5 -81 l-8 -67 47 5 c42 5 47 4 52 -18 12 -49 -2 -72 -59 -88 -28 -9 -58
-20 -66 -25 -20 -13 -31 -90 -20 -134 21 -82 115 -91 180 -18 39 44 50 48 67
29 14 -18 -46 -197 -84 -251 -49 -68 -96 -100 -159 -105 -53 -4 -57 -3 -89 31
l-33 35 -21 -43 c-68 -141 -232 -209 -334 -139 -50 35 -88 112 -88 180 0 75
46 291 75 350 35 72 91 99 149 72 38 -16 41 -42 12 -85 -14 -21 -26 -42 -26
-48 0 -6 36 -45 79 -86 86 -82 99 -85 121 -27 6 18 16 42 20 53 10 23 30 141
30 173 0 15 -6 22 -20 22 -28 0 -56 45 -40 65 7 8 18 15 25 15 27 0 73 59 85
110 17 71 70 111 100 75z m1361 -45 c33 -18 21 -47 -53 -131 -211 -234 -281
-350 -235 -388 30 -24 74 -24 117 0 42 24 42 24 56 4 14 -19 10 -25 -64 -97
-44 -42 -104 -89 -133 -103 -94 -48 -182 -32 -217 39 -17 34 3 107 51 187 54
90 263 363 325 425 73 72 108 87 153 64z m-682 -108 c48 -26 73 -75 68 -134
-11 -124 -136 -198 -260 -154 -34 12 -39 12 -44 -1 -16 -41 46 -77 133 -76 73
1 154 34 199 81 32 34 59 41 68 17 9 -22 -91 -153 -157 -207 -156 -125 -347
-102 -396 48 -19 58 -8 179 22 246 34 74 101 145 163 174 63 30 155 32 204 6z
m1128 -132 c68 -41 78 -92 27 -143 -42 -42 -105 -36 -161 16 -34 30 -31 81 6
118 35 35 81 38 128 9z m-158 -189 c27 -17 1 -63 -80 -140 -66 -64 -79 -82
-79 -109 0 -40 37 -68 78 -58 76 19 82 19 82 -2 0 -36 -163 -140 -253 -163
-59 -14 -112 -2 -147 36 -54 58 -15 157 113 285 134 134 231 186 286 151z
m-2605 -88 c7 -16 24 -66 37 -113 33 -123 74 -158 124 -104 19 20 25 38 25 70
0 35 4 44 21 49 12 4 25 3 29 -2 10 -11 50 -213 50 -254 0 -53 -22 -109 -53
-135 -50 -42 -111 -28 -169 40 l-24 29 4 -90 c4 -77 1 -95 -17 -131 -38 -75
-110 -92 -178 -43 -48 35 -81 77 -117 149 -82 163 -70 323 29 410 34 31 52 38
105 44 18 2 28 13 40 43 22 57 28 65 55 65 17 0 29 -9 39 -27z m1249 -121 c54
-57 102 -76 188 -76 71 -1 83 3 162 42 98 50 116 48 136 -17 15 -50 60 -87
127 -102 51 -12 89 -5 181 32 46 19 83 0 83 -41 0 -73 49 -132 126 -153 42
-11 43 -11 94 -128 28 -64 63 -135 77 -157 25 -39 39 -49 153 -115 44 -26 60
-43 84 -90 33 -65 36 -111 21 -324 -10 -145 -4 -171 71 -328 109 -230 116
-320 45 -581 -21 -77 -27 -220 -16 -340 5 -51 3 -99 -10 -165 -18 -100 -38
-143 -114 -245 -25 -33 -80 -125 -121 -204 -41 -78 -92 -159 -112 -179 -44
-45 -128 -91 -218 -119 -69 -22 -189 -46 -196 -39 -3 2 0 16 6 31 5 15 10 51
10 80 0 54 -12 75 -53 89 -44 16 -116 -43 -133 -107 l-6 -27 -24 34 c-77 114
-298 87 -365 -44 -29 -58 -28 -146 3 -210 l24 -47 -31 5 c-17 3 -46 -2 -65
-10 -32 -13 -38 -12 -80 8 -77 39 -136 54 -264 70 -188 23 -217 35 -385 151
-42 29 -87 49 -157 68 -191 52 -241 101 -285 278 -29 120 -70 198 -178 341
-152 201 -168 259 -121 442 16 66 30 136 30 156 0 20 -14 81 -32 135 -27 84
-31 115 -32 199 0 91 4 111 40 215 l39 115 1 195 c0 270 13 309 148 450 111
115 167 198 207 305 39 101 95 173 126 160 54 -22 97 -25 154 -11 73 19 124
51 176 110 37 42 43 45 68 36 48 -18 118 -12 173 16 54 27 95 71 130 141 27
53 52 60 70 19 8 -17 28 -46 45 -64z m489 56 c-7 -7 -12 -8 -12 -2 0 6 3 14 7
17 3 4 9 5 12 2 2 -3 -1 -11 -7 -17z m1173 -44 c31 -20 91 -20 140 0 48 20 89
20 109 0 26 -25 19 -43 -28 -72 -24 -15 -52 -32 -62 -38 -18 -11 -17 -14 16
-49 l35 -36 -28 -25 c-37 -32 -50 -30 -104 11 -25 19 -53 35 -61 35 -28 0
-102 -50 -117 -80 -20 -39 -19 -62 6 -94 30 -38 76 -59 114 -53 33 5 55 -7 55
-29 0 -15 -133 -67 -214 -84 -161 -33 -286 55 -246 174 17 51 100 122 223 189
59 32 109 63 112 68 3 5 1 18 -5 29 -9 17 -8 27 5 46 18 29 19 29 50 8z
m-2553 -237 c-17 -19 -17 -19 -23 9 -4 16 -7 40 -8 53 -1 24 0 23 24 -9 24
-32 24 -34 7 -53z m2951 -192 c104 -27 180 -97 194 -178 11 -73 -51 -155 -160
-208 -26 -13 -47 -26 -47 -29 0 -16 41 -41 76 -47 22 -3 41 -10 44 -14 3 -4
58 -19 121 -33 169 -35 220 -66 235 -143 7 -34 -7 -68 -35 -82 -14 -8 -26 -4
-52 14 -18 14 -42 25 -53 25 -11 0 -49 -32 -92 -77 -68 -73 -72 -79 -57 -95 9
-10 34 -23 55 -30 38 -11 45 -22 29 -47 -19 -30 -218 11 -300 63 -77 49 -130
138 -131 218 0 59 10 85 51 126 l32 33 -33 34 c-25 25 -45 36 -79 41 -99 14
-194 78 -221 150 -44 116 48 232 220 278 72 19 132 19 203 1z m-148 -2758 c33
-33 55 -101 55 -167 0 -17 3 -30 6 -30 17 0 46 24 59 50 29 56 54 29 35 -39
-13 -49 -60 -106 -94 -115 -16 -4 -35 -25 -55 -61 -64 -114 -177 -138 -207
-45 -7 19 -18 35 -25 35 -11 0 -13 -23 -10 -120 4 -134 -8 -199 -40 -216 -30
-16 -68 -3 -79 27 -11 29 -12 132 -1 217 4 31 6 57 6 57 -26 0 -66 -30 -89
-66 -82 -130 -238 -139 -297 -18 -18 38 -21 58 -17 127 9 164 105 287 225 287
77 0 128 -62 140 -169 5 -56 8 -62 27 -59 19 3 22 13 33 131 8 96 15 133 29
148 22 25 48 24 65 -2 14 -20 15 -20 56 20 38 37 46 41 93 41 45 0 56 -4 85
-33z m-3349 9 c71 -19 151 -64 176 -99 27 -38 27 -100 1 -135 -13 -17 -36 -31
-64 -38 l-44 -11 3 -49 c5 -92 -68 -174 -154 -174 -75 0 -121 38 -116 96 2 29
3 30 -53 -1 -62 -32 -108 -40 -155 -26 -84 25 -108 118 -49 186 22 25 39 35
60 35 18 0 29 -5 29 -14 0 -26 41 -65 75 -72 55 -10 114 25 180 107 54 66 75
79 103 60 12 -7 11 -14 -2 -39 -20 -39 -20 -39 3 -52 45 -24 101 36 79 85 -23
52 -155 83 -216 51 -36 -19 -51 -58 -31 -82 11 -14 9 -20 -14 -40 -38 -33 -90
-32 -124 2 -61 61 8 179 127 215 41 12 131 10 186 -5z m2172 -34 c2 -13 -8
-71 -23 -129 -33 -127 -25 -147 33 -91 63 62 118 73 157 33 23 -22 25 -32 25
-113 0 -55 4 -92 12 -100 22 -22 56 -13 87 24 18 23 35 35 44 31 13 -5 13 -15
-5 -74 -48 -161 -121 -240 -203 -219 -45 11 -59 57 -51 169 7 105 1 127 -36
127 -28 0 -64 -45 -77 -97 -9 -35 -9 -63 0 -119 10 -64 10 -77 -5 -99 -20 -30
-56 -41 -86 -25 -56 30 -63 139 -25 385 30 194 57 288 88 310 30 22 61 15 65
-13z m-226 -39 c54 -55 49 -153 -11 -207 -32 -29 -51 -14 -51 39 0 39 -4 47
-25 57 -19 9 -29 8 -48 -5 -50 -32 -39 -96 28 -177 81 -97 100 -137 100 -210
0 -153 -109 -249 -267 -238 -104 8 -175 83 -185 198 -8 85 3 124 46 170 31 32
45 40 74 40 36 0 51 -20 27 -35 -18 -11 -11 -81 11 -109 16 -20 29 -26 57 -26
45 1 69 17 82 57 14 38 5 61 -59 147 -72 97 -89 171 -55 242 31 64 94 95 187
90 49 -2 62 -7 89 -33z m-2049 -67 c-24 -28 -30 -31 -42 -20 -13 12 -12 16 4
34 10 11 29 20 43 20 l24 0 -29 -34z m144 -39 c-22 -33 -39 -32 -20 1 10 17
21 28 26 25 4 -3 2 -14 -6 -26z m708 4 c3 -6 -19 -58 -50 -117 -30 -59 -55
-113 -55 -121 0 -27 34 -12 79 37 51 54 88 65 123 33 36 -33 8 -93 -43 -93
-41 0 -69 -16 -69 -40 0 -11 9 -24 19 -30 29 -15 104 -12 129 6 62 43 31 -37
-43 -112 -43 -43 -94 -61 -125 -44 -20 11 -40 60 -40 101 0 40 -10 59 -30 59
-19 0 -30 -27 -30 -76 0 -18 -9 -42 -19 -55 -16 -20 -23 -22 -47 -13 -28 9
-29 13 -28 69 1 51 10 80 63 196 34 75 76 152 92 172 29 36 61 47 74 28z
m1095 -63 c0 -7 -5 -20 -10 -28 -8 -12 -10 -9 -10 13 0 15 5 27 10 27 6 0 10
-6 10 -12z m-2120 -26 c31 -9 32 -10 9 -11 -15 -1 -35 7 -46 17 -10 9 -14 14
-8 10 5 -3 26 -11 45 -16z m615 -4 c14 -6 25 -15 25 -20 0 -5 20 -6 45 -2 41
6 45 4 45 -14 0 -11 -16 -44 -35 -73 -38 -56 -41 -75 -12 -93 13 -8 24 -7 49
7 61 35 48 -10 -27 -87 -44 -47 -59 -56 -88 -56 -47 0 -71 28 -64 75 l6 36
-41 -35 c-114 -98 -192 -16 -127 134 48 108 145 164 224 128z m-205 -42 c0 -2
-7 -9 -15 -16 -12 -10 -15 -10 -15 4 0 9 7 16 15 16 8 0 15 -2 15 -4z m1843
-33 c-3 -21 -8 -55 -12 -76 l-6 -37 -37 50 -37 50 33 14 c19 8 37 19 40 25 15
23 24 9 19 -26z m-726 -29 c25 -34 16 -83 -22 -121 -34 -34 -39 -35 -85 -30
-56 7 -69 -2 -40 -28 32 -29 120 -17 171 24 22 18 43 30 46 27 19 -19 -75
-133 -131 -160 -52 -25 -122 -21 -151 8 -69 70 -42 224 52 288 36 25 140 20
160 -8z m491 -96 c19 -41 1 -70 -41 -66 -26 2 -33 8 -35 30 -8 65 49 92 76 36z"/>
<path d="M1521 4343 c-18 -81 -19 -89 -4 -100 21 -16 45 -16 76 -2 35 16 51
51 43 93 -7 36 -57 96 -81 96 -8 0 -21 -31 -34 -87z m69 -30 c0 -20 -16 -40
-25 -31 -3 2 -2 21 2 42 6 39 23 32 23 -11z"/>
<path d="M2550 4638 c-49 -53 5 -113 74 -84 40 16 54 51 36 85 -16 30 -82 29
-110 -1z m70 -28 c0 -12 -28 -25 -36 -17 -9 9 6 27 22 27 8 0 14 -5 14 -10z"/>
<path d="M974 4100 c-50 -20 -69 -92 -39 -149 25 -49 82 -56 114 -15 33 41 29
108 -8 145 -32 31 -35 32 -67 19z m49 -94 c0 -36 -21 -60 -39 -45 -17 14 -18
71 -2 87 17 17 41 -8 41 -42z"/>
<path d="M1975 4017 c-69 -23 -100 -44 -158 -107 -150 -162 -99 -360 89 -347
153 11 287 153 288 304 1 66 -14 98 -65 135 -32 24 -105 31 -154 15z"/>
<path d="M2742 3993 c-92 -45 -78 -189 23 -237 49 -24 134 -31 179 -16 53 17
76 46 76 94 0 120 -166 215 -278 159z"/>
<path d="M3004 3393 c-24 -81 -88 -149 -113 -120 -6 8 -34 27 -63 42 -110 60
-236 31 -333 -77 -158 -174 -190 -491 -75 -726 170 -345 519 -274 627 128 27
101 23 282 -9 385 -14 44 -28 87 -32 96 -5 13 1 19 26 28 41 14 88 59 88 83 0
30 -29 33 -58 6 -36 -34 -93 -53 -104 -36 -5 9 2 22 20 38 51 44 88 122 75
156 -7 20 -43 18 -49 -3z m-219 -117 c19 -8 35 -18 35 -21 0 -3 -12 -18 -26
-33 -30 -32 -80 -126 -101 -191 -8 -25 -17 -101 -20 -168 -5 -112 -4 -129 20
-205 28 -89 87 -191 131 -225 14 -12 26 -25 26 -30 0 -13 -49 -39 -98 -53
-133 -35 -280 102 -328 306 -19 80 -22 238 -5 306 57 242 215 377 366 314z"/>
<path d="M1472 3337 c-24 -28 22 -126 73 -160 37 -23 42 -32 25 -42 -19 -12
-71 7 -106 37 -36 32 -64 32 -64 -1 0 -25 60 -77 99 -86 17 -4 33 -10 36 -15
3 -5 -2 -39 -11 -77 -10 -42 -16 -110 -16 -178 1 -194 55 -339 163 -439 185
-172 420 -72 516 217 23 72 26 98 27 217 1 199 -37 317 -136 426 -127 138
-282 146 -416 20 -27 -25 -53 -46 -59 -46 -18 0 -65 58 -78 96 -14 42 -35 54
-53 31z m468 -63 l40 -16 -35 -39 c-77 -86 -125 -232 -125 -383 0 -155 52
-297 142 -387 35 -35 44 -50 35 -57 -92 -73 -230 -55 -313 41 -78 91 -114 194
-121 348 -9 188 30 319 124 420 78 85 163 109 253 73z"/>
<path d="M3299 3292 c-82 -74 -26 -259 93 -307 128 -51 207 76 136 220 -39 78
-89 115 -157 115 -30 0 -49 -7 -72 -28z"/>
<path d="M1236 2845 c-82 -29 -146 -120 -153 -218 -5 -75 18 -120 72 -143 92
-38 175 -4 220 92 59 124 54 215 -14 261 -39 26 -69 28 -125 8z"/>
<path d="M2207 2533 c-61 -39 -88 -169 -50 -234 26 -44 92 -72 151 -64 59 8
75 17 70 41 -3 17 -11 19 -64 16 -53 -3 -65 0 -89 21 -24 20 -28 32 -28 71 0
88 59 129 126 87 36 -22 61 -15 55 14 -9 51 -119 81 -171 48z"/>
<path d="M3260 2438 c-139 -39 -161 -266 -40 -418 42 -53 127 -94 180 -87 90
12 144 87 144 202 0 185 -147 342 -284 303z"/>
<path d="M2630 2178 c-17 -35 -30 -68 -30 -74 0 -7 -17 -27 -39 -47 -93 -84
-195 -118 -293 -98 -67 14 -173 76 -191 111 -30 56 -52 82 -94 106 -35 21 -46
24 -58 14 -25 -20 -17 -38 24 -59 49 -26 81 -76 90 -146 13 -96 -15 -147 -106
-191 -43 -21 -53 -31 -51 -48 2 -17 10 -21 37 -21 l34 0 17 -87 c23 -109 35
-148 73 -223 64 -129 149 -195 252 -195 114 0 237 97 308 244 41 82 93 234
103 297 6 36 8 38 33 31 14 -4 53 -7 86 -7 57 0 60 1 60 25 0 24 -4 25 -65 31
-71 6 -114 26 -145 67 -16 22 -20 43 -20 112 0 73 4 92 28 139 21 41 25 57 16
67 -22 26 -40 14 -69 -48z m-339 -657 l27 -54 7 31 c3 17 20 43 37 57 53 45
116 28 168 -45 19 -27 20 -32 6 -58 -8 -15 -35 -51 -61 -79 -118 -132 -269
-124 -358 17 -15 24 -15 29 7 75 31 68 81 117 115 113 20 -2 32 -15 52 -57z"/>
<path d="M1364 1985 c-86 -68 -87 -230 -3 -265 28 -12 36 -11 73 8 58 31 89
81 94 150 3 47 0 63 -20 92 -20 30 -30 35 -68 38 -35 2 -52 -3 -76 -23z"/>
<path d="M3104 1596 c-78 -34 -153 -132 -154 -201 0 -36 31 -89 60 -105 32
-17 103 -14 141 5 108 54 166 174 127 260 -23 51 -106 70 -174 41z"/>
<path d="M1763 1265 c-32 -22 -54 -88 -47 -136 14 -83 105 -169 180 -169 65 0
102 51 96 135 -6 79 -42 139 -103 171 -36 18 -99 18 -126 -1z"/>
<path d="M4273 3671 c-37 -23 -49 -52 -32 -83 19 -36 40 -47 90 -48 91 0 127
63 70 121 -35 35 -81 38 -128 10z m101 -48 c5 -11 1 -22 -10 -30 -23 -17 -46
-16 -69 1 -16 12 -17 16 -6 30 18 22 77 21 85 -1z"/>
<path d="M4464 3273 c-18 -18 -18 -47 1 -82 31 -60 111 -54 174 13 14 14 21
29 17 33 -4 5 -46 17 -93 29 -73 17 -87 18 -99 7z m94 -53 c19 0 14 -17 -7
-23 -21 -5 -51 9 -51 25 0 6 9 8 23 4 12 -3 28 -6 35 -6z"/>
<path d="M4081 914 c-23 -29 -27 -74 -11 -105 14 -25 71 -26 94 0 22 24 31 83
17 110 -17 32 -73 29 -100 -5z m69 -38 c0 -25 -17 -46 -37 -46 -18 0 -16 45 3
64 19 20 34 12 34 -18z"/>
<path d="M3665 815 c-45 -44 -26 -135 28 -135 29 0 67 43 74 83 11 70 -52 102
-102 52z m65 -39 c0 -24 -23 -56 -41 -56 -13 0 -11 54 3 68 20 20 38 14 38
-12z"/>
<path d="M821 786 c-7 -8 -11 -30 -9 -48 3 -30 6 -33 38 -33 27 0 37 6 50 27
11 21 12 32 4 45 -14 23 -67 29 -83 9z m57 -33 c-2 -10 -13 -19 -26 -21 -24
-4 -25 -2 -16 22 9 23 46 21 42 -1z"/>
<path d="M1142 697 c-28 -29 -28 -63 -2 -77 45 -24 112 46 80 84 -18 23 -53
20 -78 -7z m58 -16 c0 -5 -7 -17 -16 -25 -8 -9 -20 -16 -25 -16 -13 0 -11 24
3 38 14 14 38 16 38 3z"/>
<path d="M2032 648 c-32 -32 2 -74 46 -57 34 13 28 63 -8 67 -14 2 -31 -3 -38
-10z"/>
<path d="M361 4009 c-109 -21 -221 -131 -303 -295 l-53 -107 -3 -178 c-3 -165
-2 -180 18 -219 51 -99 152 -172 240 -174 l46 -1 1 -46 c2 -119 125 -230 256
-230 69 0 104 14 155 64 120 118 108 330 -29 515 l-40 52 34 30 c19 16 47 58
63 92 24 53 29 76 29 143 0 67 -5 90 -29 143 -67 146 -239 240 -385 211z m175
-69 c100 -43 182 -154 191 -260 8 -89 -18 -165 -78 -223 -27 -26 -49 -54 -49
-63 0 -8 20 -44 45 -78 72 -101 98 -168 103 -263 4 -75 2 -88 -23 -138 -50
-103 -151 -138 -251 -87 -82 42 -137 136 -117 198 8 26 15 30 60 34 56 6 77
19 100 63 38 74 -5 184 -131 335 -65 78 -86 111 -86 133 0 27 29 69 49 69 5 0
38 -29 73 -65 39 -39 73 -65 86 -65 25 0 49 32 58 77 20 100 -107 209 -198
169 -100 -42 -196 -240 -168 -345 17 -65 94 -113 126 -81 30 30 84 -43 84
-114 0 -79 -46 -139 -117 -152 -50 -9 -103 10 -157 57 -165 146 -145 429 50
688 95 127 220 166 350 111z m-86 -215 c38 -20 70 -62 70 -94 0 -54 -14 -53
-70 5 -30 31 -66 60 -80 66 l-25 10 25 13 c32 18 45 18 80 0z m-127 -268 c46
-54 48 -58 23 -51 -15 3 -32 1 -40 -5 -36 -30 -72 32 -61 106 6 41 8 45 18 28
5 -11 33 -46 60 -78z m156 -273 c1 -27 -5 -47 -19 -62 -33 -35 -41 -26 -20 21
11 23 20 60 20 82 1 32 3 36 10 20 5 -11 9 -38 9 -61z"/>
</g>
</svg>
